<?xml version="1.0" encoding="utf-8"?>
<!-- Generator: Adobe Illustrator 18.1.0, SVG Export Plug-In . SVG Version: 6.00 Build 0)  -->
<!DOCTYPE svg PUBLIC "-//W3C//DTD SVG 1.1//EN" "http://www.w3.org/Graphics/SVG/1.1/DTD/svg11.dtd">
<svg version="1.1" id="Layer_1" xmlns="http://www.w3.org/2000/svg" xmlns:xlink="http://www.w3.org/1999/xlink" x="0px" y="0px"
	 viewBox="0 0 28 28" enable-background="new 0 0 28 28" xml:space="preserve">
<g>
	<polygon fill="#FFFFFF" points="16,12 10,12 10,14 12,14 12,20 10,20 10,22 18,22 18,20 16,20 	"/>
	<circle fill="#FFFFFF" cx="14" cy="8" r="2"/>
	<path fill="#FFFFFF" d="M14,0C6.3,0,0,6.3,0,14s6.3,14,14,14s14-6.3,14-14S21.7,0,14,0z M14,26C7.4,26,2,20.6,2,14S7.4,2,14,2
		s12,5.4,12,12S20.6,26,14,26z"/>
</g>
</svg>
